<svg xmlns="http://www.w3.org/2000/svg" width="19.528" height="19.567" viewBox="0 0 19.528 19.567">
  <path id="Icon_feather-phone-call" data-name="Icon feather-phone-call" d="M22.7,17.649v2.946a1.964,1.964,0,0,1-2.14,1.964,19.431,19.431,0,0,1-8.473-3.014A19.146,19.146,0,0,1,6.19,13.653,19.431,19.431,0,0,1,3.176,5.14,1.964,1.964,0,0,1,5.13,3H8.075a1.964,1.964,0,0,1,1.964,1.689,12.607,12.607,0,0,0,.687,2.759,1.964,1.964,0,0,1-.442,2.072L9.037,10.766a15.71,15.71,0,0,0,5.891,5.891l1.247-1.247a1.964,1.964,0,0,1,2.072-.442,12.607,12.607,0,0,0,2.759.687A1.964,1.964,0,0,1,22.7,17.649Z" transform="translate(-3.168 -3)" fill="#fff"/>
</svg>
