<svg xmlns="http://www.w3.org/2000/svg" width="21.674" height="21.675" viewBox="0 0 21.674 21.675">
  <g id="noun-apps-4602554" transform="translate(-99.478 -29.473)">
    <path id="Path_5448" data-name="Path 5448" d="M101.384,29.473h6.388a2.048,2.048,0,0,1,1.906,1.906v6.388a1.906,1.906,0,0,1-1.906,1.906h-6.388a2.048,2.048,0,0,1-1.906-1.906V31.379A1.906,1.906,0,0,1,101.384,29.473Z" transform="translate(0)" fill="#fff"/>
    <path id="Path_5449" data-name="Path 5449" d="M366.644,29.473h6.388a2.048,2.048,0,0,1,1.906,1.906v6.388a1.906,1.906,0,0,1-1.906,1.906h-6.388a2.048,2.048,0,0,1-1.906-1.906V31.379A1.906,1.906,0,0,1,366.644,29.473Z" transform="translate(-253.785)" fill="#fff"/>
    <path id="Path_5450" data-name="Path 5450" d="M101.384,294.74h6.388a2.048,2.048,0,0,1,1.906,1.906v6.388a1.906,1.906,0,0,1-1.906,1.906h-6.388a2.048,2.048,0,0,1-1.906-1.906v-6.388A1.906,1.906,0,0,1,101.384,294.74Z" transform="translate(0 -253.792)" fill="#fff"/>
    <path id="Path_5451" data-name="Path 5451" d="M366.251,294.74h5.07a1.625,1.625,0,0,1,1.513,1.513v5.07a1.513,1.513,0,0,1-1.513,1.513h-5.07a1.625,1.625,0,0,1-1.513-1.513v-5.07A1.513,1.513,0,0,1,366.251,294.74Z" transform="translate(-252.733 -252.74)" fill="none" stroke="#fff" stroke-width="1"/>
  </g>
</svg>
